<svg width="27" height="24" viewBox="0 0 27 24" fill="none" xmlns="http://www.w3.org/2000/svg">
    <path d="M26.5156 20.9283L19.1336 14.286C20.4983 12.4198 21.0449 10.1643 20.6676 7.95622C20.2902 5.74816 19.0158 3.74462 17.091 2.3335C15.1662 0.922386 12.7279 0.204074 10.2483 0.317642C7.76873 0.43121 5.42415 1.36858 3.66853 2.94826C1.91292 4.52794 0.871153 6.63757 0.744937 8.86869C0.618721 11.0998 1.41703 13.2937 2.98531 15.0256C4.55359 16.7576 6.78027 17.9043 9.23424 18.2438C11.6882 18.5833 14.1949 18.0915 16.269 16.8635L23.651 23.5058L26.5156 20.9283ZM3.59896 9.32946C3.59896 5.77635 6.81159 2.88566 10.7604 2.88566C14.7092 2.88566 17.9219 5.77635 17.9219 9.32946C17.9219 12.8826 14.7092 15.7733 10.7604 15.7733C6.81159 15.7733 3.59896 12.8826 3.59896 9.32946Z" fill="#BAAAAA"/>
</svg>
