<svg width="25" height="25" viewBox="0 0 25 25" fill="none" xmlns="http://www.w3.org/2000/svg">
    <path d="M8.67862 25C9.6932 25 10.5157 24.1441 10.5157 23.0883C10.5157 22.0325 9.6932 21.1766 8.67862 21.1766C7.66403 21.1766 6.84155 22.0325 6.84155 23.0883C6.84155 24.1441 7.66403 25 8.67862 25Z" fill="#5B5B5B"/>
    <path d="M19.8398 25C20.8543 25 21.6768 24.1441 21.6768 23.0883C21.6768 22.0325 20.8543 21.1766 19.8398 21.1766C18.8252 21.1766 18.0027 22.0325 18.0027 23.0883C18.0027 24.1441 18.8252 25 19.8398 25Z" fill="#5B5B5B"/>
    <path d="M24.8039 2.37415C24.7279 2.27668 24.6321 2.19794 24.5234 2.14359C24.4147 2.08923 24.2958 2.06061 24.1752 2.05978H7.17624L7.70694 3.75906H23.1056L20.9257 13.9547H8.67855L4.94726 1.66045C4.9069 1.53 4.83682 1.41164 4.74298 1.31547C4.64915 1.21931 4.53435 1.14819 4.40839 1.10819L1.06085 0.0376417C0.957916 0.00472679 0.849762 -0.00676832 0.742561 0.00381262C0.63536 0.0143936 0.531211 0.0468434 0.436061 0.0993093C0.243897 0.205269 0.100054 0.386327 0.0361736 0.602651C-0.0277063 0.818976 -0.00638966 1.05285 0.0954342 1.25282C0.197258 1.45279 0.371248 1.60247 0.579129 1.66895L3.51027 2.60355L7.25788 14.9233L5.91887 16.0618L5.81272 16.1723C5.48151 16.5695 5.29377 17.0744 5.28185 17.6002C5.26993 18.1259 5.43457 18.6395 5.74741 19.0525C5.96994 19.3342 6.25273 19.5577 6.57314 19.7052C6.89355 19.8527 7.24269 19.9202 7.59264 19.9022H21.2196C21.4361 19.9022 21.6438 19.8127 21.7969 19.6533C21.95 19.494 22.0361 19.2779 22.0361 19.0525C22.0361 18.8272 21.95 18.6111 21.7969 18.4518C21.6438 18.2924 21.4361 18.2029 21.2196 18.2029H7.462C7.36798 18.1996 7.27638 18.171 7.19604 18.1201C7.11571 18.0692 7.04935 17.9975 7.00338 17.9121C6.95742 17.8267 6.9334 17.7304 6.93364 17.6325C6.93389 17.5346 6.95839 17.4384 7.00478 17.3533L8.97248 15.654H21.5788C21.7676 15.6588 21.9521 15.5954 22.1009 15.4745C22.2498 15.3537 22.3538 15.1829 22.3953 14.9913L24.9835 3.09634C25.0084 2.96967 25.0051 2.83878 24.974 2.71363C24.9428 2.58848 24.8847 2.47237 24.8039 2.37415Z" fill="#5B5B5B"/>
</svg>
