<svg width="25" height="25" viewBox="0 0 25 25" fill="none" xmlns="http://www.w3.org/2000/svg">
    <path d="M24.0192 20.402C23.3921 18.9987 22.482 17.7239 21.3397 16.6489C20.2009 15.5707 18.8518 14.7111 17.367 14.1175C17.3537 14.1112 17.3404 14.108 17.3271 14.1018C19.3982 12.6884 20.7446 10.3863 20.7446 7.78894C20.7446 3.48618 17.0545 0 12.5 0C7.94551 0 4.25537 3.48618 4.25537 7.78894C4.25537 10.3863 5.60177 12.6884 7.6729 14.1049C7.65961 14.1112 7.64631 14.1143 7.63301 14.1206C6.14366 14.7142 4.80723 15.5653 3.6603 16.652C2.51905 17.7279 1.60913 19.0024 0.980795 20.4052C0.363519 21.7784 0.030608 23.2508 8.31311e-05 24.7425C-0.00080418 24.776 0.00541927 24.8093 0.018387 24.8405C0.0313547 24.8718 0.0508041 24.9002 0.0755893 24.9242C0.100374 24.9482 0.129994 24.9673 0.162702 24.9803C0.195411 24.9933 0.230546 25 0.266039 25H2.26071C2.40698 25 2.52334 24.8901 2.52666 24.755C2.59315 22.3304 3.62373 20.0597 5.44553 18.3386C7.33049 16.5578 9.83379 15.5779 12.5 15.5779C15.1662 15.5779 17.6695 16.5578 19.5545 18.3386C21.3763 20.0597 22.4068 22.3304 22.4733 24.755C22.4767 24.8932 22.593 25 22.7393 25H24.734C24.7695 25 24.8046 24.9933 24.8373 24.9803C24.87 24.9673 24.8996 24.9482 24.9244 24.9242C24.9492 24.9002 24.9686 24.8718 24.9816 24.8405C24.9946 24.8093 25.0008 24.776 24.9999 24.7425C24.9667 23.2412 24.6376 21.7808 24.0192 20.402ZM12.5 13.191C10.9741 13.191 9.53792 12.6288 8.45747 11.608C7.37703 10.5873 6.78195 9.23053 6.78195 7.78894C6.78195 6.34736 7.37703 4.99058 8.45747 3.96985C9.53792 2.94912 10.9741 2.38693 12.5 2.38693C14.0259 2.38693 15.4621 2.94912 16.5425 3.96985C17.623 4.99058 18.218 6.34736 18.218 7.78894C18.218 9.23053 17.623 10.5873 16.5425 11.608C15.4621 12.6288 14.0259 13.191 12.5 13.191Z" fill="#5B5B5B"/>
</svg>
