<svg xmlns="http://www.w3.org/2000/svg" viewBox="0 0 436.45 248.54"><defs><style>.cls-1{fill:#3a3a3a;}.cls-2{fill:#1c1c1c;}.cls-3{fill:#3a7a1c;}</style></defs><g id="Capa_2" data-name="Capa 2"><g id="Capa_3" data-name="Capa 3"><rect class="cls-1" x="142" y="53.82" width="33" height="78" rx="16.5"/><rect class="cls-1" x="259" y="53.82" width="33" height="78" rx="16.5"/><polygon class="cls-2" points="176 74.82 180 80.82 193 73.82 186 66.82 176 74.82"/><polygon class="cls-2" points="255 74.82 251 80.82 238 73.82 245 66.82 255 74.82"/><path class="cls-3" d="M275,24.82c-8,1-48,8-48,8s12-18,17-25c6-1,24,2,24-4,0-5-6-4-28-3-3,4-11,16-11,16H203s-8-12-11-16c-22-1-28-2-28,3,0,6,18,3,24,4,5,7,17,25,17,25s-40-7-48-8c-1,12,3,13,45,50q-13.5,12-24,21c-3,3,1,10,6,6,6-5,22-18,22-18v14h20v-14s16,13,22,18c5,4,9-3,6-6q-10.5-9-24-21C272,37.82,276,36.82,275,24.82Zm-59,36a11,11,0,1,1,11-11A11,11,0,0,1,216,60.82Z"/><path class="cls-3" d="M18.26,205.86a47.88,47.88,0,0,1-10.21-1.05,28.26,28.26,0,0,1-8-3.05V190.82H14v.62q0,3.36,3.43,3.36a3.6,3.6,0,0,0,2.65-.87,4,4,0,0,0,.92-2.86V166.82H15v-10H44v10H41v20.89q0,9.14-6,13.68T18.26,205.86Zm28.74,0v-11h3v-28H47v-10H94v19H78v-9H70v10h6v7H70v12h8v-10H94v20Zm101-34H136v-5h-4v29h5v10H108v-10h4v-29h-4v5H96v-15h52Zm56,18h-4v12.6a37.5,37.5,0,0,1-8.95,2.84,62.73,62.73,0,0,1-12.64,1.2q-13,0-20.33-6.18t-7.36-19.22q0-13.31,7.29-19.35t21-6.05a57.75,57.75,0,0,1,12.35,1.26,34.66,34.66,0,0,1,8.68,2.83v15.07H183v-3a5,5,0,0,0-1.23-3.78,5.08,5.08,0,0,0-3.77-1.19,5.34,5.34,0,0,0-3.84,1.19,5.17,5.17,0,0,0-1.16,3.78v18.41a5.39,5.39,0,0,0,1.16,3.84,5.52,5.52,0,0,0,3.84,1.14,5.25,5.25,0,0,0,3.77-1.14,5.18,5.18,0,0,0,1.23-3.84v-.44h-4v-9h25Zm52.91,6H259v10H232v-10h4.13l-1.1-5h-9.36l-1.1,5H229v10H205v-10h2.8l11.82-39h25.46Zm-29.74-12h6.62l-2.95-13h-.72Zm111.83-17h-4v28h3v11H312v-11h3V171.34l-11.72,34.48H293.07L281,171.68v23.14h4v11H262v-11h3v-28h-3v-10h32l7.26,19,7-19H339Zm3,39v-11h3v-28h-3v-10h46v19H373v-9h-8v10h5v7h-5v12h8v-10h15v20Zm70.92,1.2a75.34,75.34,0,0,1-12.75-1,46.92,46.92,0,0,1-9.17-2.44V190.82h15.41a3.73,3.73,0,0,0,1,2.89,5.33,5.33,0,0,0,3.57.9A6,6,0,0,0,414,194a2.19,2.19,0,0,0,.07-3.6,10.38,10.38,0,0,0-3.15-1.54l-6-1.93q-7.79-2.7-11.21-6.37t-3.36-9.9q0-7.59,5.39-11.51t18.14-4a53.83,53.83,0,0,1,11.42,1.16,29.61,29.61,0,0,1,8.68,3v11.51H420c0-2.15-1.44-3.22-4.34-3.22a6.38,6.38,0,0,0-3,.52,1.71,1.71,0,0,0-.84,1.67,2,2,0,0,0,1,1.73,15.46,15.46,0,0,0,3.36,1.35l6.09,1.93q7.42,2.32,10.79,6a13.52,13.52,0,0,1,3.43,9.64q0,8.17-6,12.35T412.92,207Z"/><path d="M148.76,248.54a49.83,49.83,0,0,1-8-.62,30,30,0,0,1-5.76-1.46v-7.64h9.67a2.2,2.2,0,0,0,.62,1.73,3.47,3.47,0,0,0,2.24.54,4,4,0,0,0,1.94-.34,1.24,1.24,0,0,0,.61-1.12,1.29,1.29,0,0,0-.57-1,6.83,6.83,0,0,0-2-.92l-3.78-1.16a17.66,17.66,0,0,1-7-3.82,8.25,8.25,0,0,1-2.11-5.94,7.87,7.87,0,0,1,3.39-6.91q3.44-2.39,11.39-2.39a35.46,35.46,0,0,1,7.17.69,19.33,19.33,0,0,1,5.45,1.78v6.91h-8.79c0-1.29-.91-1.93-2.73-1.93a4.16,4.16,0,0,0-1.89.31,1,1,0,0,0-.53,1,1.18,1.18,0,0,0,.62,1,9.7,9.7,0,0,0,2.11.81l3.82,1.16a15,15,0,0,1,6.77,3.63,7.88,7.88,0,0,1,2.16,5.78,8.31,8.31,0,0,1-3.78,7.41Q156,248.53,148.76,248.54ZM198,227.82h-7v-3h-3v16h3v6H172v-6h4v-16h-3v3h-8v-9h33Zm18.42,20q-8.08,0-12.51-3.58t-4.37-11.42q0-7.86,4.37-11.43t12.51-3.57q8.1,0,12.47,3.57t4.42,11.43q0,7.85-4.42,11.42T216.42,247.82Zm-.42-6.64a3.32,3.32,0,0,0,2.25-.67,2.66,2.66,0,0,0,.75-2.08V227.21a2.64,2.64,0,0,0-.75-2.08,4.11,4.11,0,0,0-4.5,0,2.64,2.64,0,0,0-.75,2.08v11.22a2.68,2.68,0,0,0,.75,2.11A3.43,3.43,0,0,0,216,241.18Zm19-.36h2v-17h-2v-5h20.1c3.8-.48,6.7.18,8.71,1.49s3,3.45,3,6.4a7.69,7.69,0,0,1-1.19,4.32,6.16,6.16,0,0,1-3.4,2.53l0,.37c2.83.38,4.74,4.4,4.74,4.4v2.49h2v6H254v-8.6a3.79,3.79,0,0,0-.51-2.16,2.41,2.41,0,0,0-1.54-1,13.09,13.09,0,0,0-2.95-.25v6h4v6H235Zm16.41-10a2.89,2.89,0,0,0,1.92-.55,2.25,2.25,0,0,0,.67-1.79v-1.32a2.14,2.14,0,0,0-.67-1.76,2.74,2.74,0,0,0-1.92-.58H249v6Zm18.59,16v-6h2v-17h-2v-5h30v11H290v-5h-5v6h4v4h-4v6h5v-6h10v12Z"/></g></g></svg>